<?xml version="1.0" standalone="no"?>
<!DOCTYPE svg PUBLIC "-//W3C//DTD SVG 20010904//EN"
 "http://www.w3.org/TR/2001/REC-SVG-20010904/DTD/svg10.dtd">
<svg version="1.0" xmlns="http://www.w3.org/2000/svg"
 width="1920.000000pt" height="1280.000000pt" viewBox="0 0 1920.000000 1280.000000"
 preserveAspectRatio="xMidYMid meet">
<metadata>
Created by potrace 1.14, written by Peter Selinger 2001-2017
</metadata>
<g transform="translate(0.000000,1280.000000) scale(0.100000,-0.100000)"
fill="#000000" stroke="none">
<path d="M0 6400 l0 -6400 9600 0 9600 0 0 6400 0 6400 -9600 0 -9600 0 0
-6400z m8310 6318 c22 -40 56 -125 76 -188 19 -63 62 -198 94 -300 32 -102 66
-210 76 -240 9 -30 29 -77 44 -105 45 -82 110 -234 110 -256 0 -11 14 -52 31
-91 29 -66 30 -75 24 -152 -6 -78 -1 -117 35 -291 14 -68 15 -221 1 -271 -6
-23 -22 -56 -36 -75 -33 -45 -85 -150 -85 -171 0 -33 -43 -132 -69 -157 -29
-30 -71 -137 -71 -184 0 -28 13 -45 88 -118 48 -47 111 -105 139 -128 39 -32
67 -68 107 -139 29 -54 57 -107 60 -119 8 -25 51 -63 71 -63 7 0 31 -12 54
-27 40 -26 40 -27 21 -43 -11 -10 -20 -27 -20 -39 0 -12 -5 -30 -12 -41 -10
-16 -8 -32 11 -92 13 -40 33 -109 45 -153 13 -44 26 -87 29 -95 3 -8 8 -33 12
-55 4 -22 15 -57 26 -79 10 -22 19 -44 19 -49 0 -20 67 -100 124 -147 34 -27
72 -61 86 -74 14 -12 42 -33 62 -45 56 -33 123 -113 230 -272 104 -155 126
-195 152 -276 11 -34 28 -61 47 -75 88 -67 230 -203 289 -277 109 -136 159
-255 211 -501 31 -148 32 -166 33 -385 l1 -230 66 -110 c97 -160 117 -202 236
-495 19 -47 43 -125 53 -175 10 -49 29 -128 43 -175 14 -47 28 -105 32 -130 3
-25 19 -94 35 -155 86 -326 82 -304 77 -490 -4 -143 -10 -192 -36 -305 -17
-74 -38 -151 -46 -170 -8 -19 -24 -75 -35 -125 -20 -85 -55 -171 -86 -206 -18
-20 -18 -83 1 -118 8 -16 23 -61 34 -100 11 -39 47 -126 80 -194 165 -337 225
-508 240 -682 5 -73 8 -80 29 -83 14 -2 22 2 22 11 0 15 87 108 125 133 21 14
26 14 49 -1 31 -21 33 -49 5 -94 -22 -36 -143 -161 -156 -161 -26 0 -33 -48
-35 -247 -2 -185 0 -217 19 -293 27 -105 70 -336 103 -557 5 -34 18 -83 28
-110 11 -26 25 -86 31 -133 7 -47 17 -109 23 -139 13 -72 -8 -273 -38 -365
-13 -38 -41 -92 -63 -120 -21 -28 -51 -80 -66 -116 -15 -36 -40 -91 -56 -122
-16 -32 -29 -69 -29 -84 0 -26 0 -26 63 -20 191 17 364 18 447 2 92 -17 279
-37 375 -41 75 -3 132 -14 168 -32 20 -10 61 -14 135 -13 102 1 144 -5 221
-29 22 -7 57 -7 105 -1 48 6 95 5 146 -3 94 -15 165 -14 184 2 11 10 67 11
226 8 l211 -5 47 34 c26 18 63 41 82 51 19 10 46 30 58 45 13 16 27 28 32 28
4 0 29 20 54 44 26 25 69 65 96 90 26 25 52 46 58 46 13 0 55 57 71 97 10 25
10 40 1 67 -9 29 -8 41 5 71 10 19 21 35 26 35 5 0 9 6 9 13 0 7 15 21 33 31
39 23 76 63 83 91 3 12 -4 45 -16 75 -27 68 -18 79 47 61 65 -17 78 -32 98
-109 20 -82 49 -130 81 -138 16 -4 57 6 115 26 80 29 94 32 128 22 20 -7 55
-27 77 -46 42 -37 41 -57 -2 -80 -10 -6 -29 -22 -42 -35 -22 -22 -24 -31 -20
-97 3 -63 7 -77 34 -111 17 -21 36 -48 42 -60 15 -27 143 -113 169 -113 10 0
37 -18 58 -40 21 -22 45 -40 52 -40 8 0 35 -20 61 -44 26 -24 74 -57 107 -73
33 -16 70 -36 82 -44 46 -28 67 -139 25 -126 -138 43 -281 130 -360 218 -41
46 -86 69 -134 69 -27 0 -23 -82 8 -187 27 -88 38 -141 53 -243 4 -30 11 -63
16 -72 6 -15 2 -18 -28 -18 -19 0 -39 6 -44 12 -6 7 -32 67 -57 133 -26 66
-60 152 -75 190 -16 39 -36 95 -46 125 -18 54 -97 232 -134 300 -10 19 -36 49
-56 65 -73 59 -180 31 -265 -71 -19 -23 -57 -57 -84 -75 -27 -19 -60 -51 -74
-72 -21 -32 -23 -41 -14 -62 14 -30 39 -32 89 -8 36 17 36 16 59 -11 16 -18
24 -40 24 -66 0 -21 5 -42 10 -45 13 -8 13 -78 0 -146 -6 -30 -15 -95 -20
-145 -5 -50 -12 -99 -16 -108 -6 -15 -46 -16 -453 -14 l-446 3 -3 25 c-2 14
-9 30 -16 35 -43 34 -39 89 8 114 27 15 36 41 14 41 -9 0 -9 3 0 12 7 7 12 25
12 41 0 26 -3 28 -22 21 -13 -4 -45 -6 -73 -4 -90 7 -210 5 -238 -3 -15 -4
-37 -17 -50 -30 -18 -18 -33 -22 -102 -23 -120 -2 -248 -15 -264 -28 -9 -7
-77 -11 -191 -11 -141 0 -181 -3 -195 -15 -21 -17 -57 -15 -150 10 -130 35
-189 41 -413 44 l-222 3 -6 -23 c-4 -13 -12 -24 -19 -24 -16 0 -24 -37 -24
-114 0 -33 -4 -63 -9 -68 -4 -4 -1781 -7 -3947 -6 -3931 3 -3940 3 -3943 23
-5 28 -51 74 -91 91 -18 8 -52 30 -73 50 -22 20 -77 54 -122 75 -44 22 -103
55 -130 74 -26 19 -58 35 -70 35 -51 0 -102 24 -155 74 -203 191 -236 136 -97
-166 30 -66 86 -229 86 -251 0 -4 -177 -7 -393 -7 l-393 0 -25 28 c-28 30 -64
102 -73 144 -3 14 -17 40 -31 56 -14 17 -25 34 -25 38 0 4 -14 22 -30 39 -17
17 -39 54 -49 81 -11 27 -28 72 -39 99 -44 108 -82 222 -82 247 0 14 -3 46 -6
72 l-7 46 -48 0 c-68 0 -99 14 -99 44 0 28 -27 41 -61 31 -18 -6 -20 -12 -14
-41 5 -27 3 -34 -10 -34 -8 0 -15 -4 -15 -8 0 -5 -11 -14 -25 -20 -18 -9 -25
-19 -25 -41 0 -36 18 -51 70 -58 24 -3 44 -12 47 -21 7 -17 -37 -102 -52 -102
-11 0 -28 -25 -53 -73 -7 -15 -20 -27 -28 -27 -8 0 -14 -6 -14 -12 0 -17 -64
-68 -84 -68 -9 0 -16 -4 -16 -10 0 -13 -67 -13 -150 0 -96 15 -174 57 -163 87
7 19 -22 43 -52 43 -11 0 -37 12 -58 26 -36 24 -41 25 -92 14 -35 -7 -55 -17
-55 -25 0 -20 -57 -28 -110 -16 -68 16 -94 13 -154 -14 -68 -31 -82 -31 -129
0 l-37 26 0 119 c0 76 4 120 10 120 6 0 27 -7 47 -15 19 -8 60 -15 89 -15 53
0 54 0 54 30 0 25 -8 35 -47 60 -92 56 -124 82 -134 108 -5 13 -8 27 -5 29 4
5 87 18 189 30 26 3 47 9 47 14 0 12 55 39 79 39 11 0 35 -13 54 -30 50 -44
118 -64 175 -51 36 7 54 6 81 -5 25 -10 52 -13 94 -8 37 4 79 2 113 -6 52 -13
55 -12 94 15 59 41 53 61 -25 83 -86 23 -172 44 -220 51 -27 4 -59 12 -70 18
-25 15 -202 34 -360 40 -81 3 -131 10 -155 20 -19 9 -29 18 -23 20 7 3 13 16
13 29 0 27 18 37 83 47 33 5 42 2 62 -18 33 -37 57 -33 53 8 -2 26 -7 32 -26
31 -12 0 -22 5 -22 13 0 7 -5 13 -11 13 -6 0 -26 13 -44 29 -26 22 -47 30 -92
35 -32 3 -67 5 -78 4 -19 -3 -20 4 -23 159 l-2 161 42 -5 c24 -3 54 -13 68
-22 14 -10 54 -28 90 -41 68 -23 100 -45 100 -65 0 -8 20 -13 60 -14 43 -1 75
-9 111 -27 36 -18 63 -24 97 -23 33 2 57 -4 77 -17 23 -15 51 -19 140 -22 309
-7 323 -8 339 -21 26 -22 19 -31 -28 -31 -52 0 -76 -19 -76 -60 0 -28 18 -40
66 -40 11 0 32 -13 47 -28 26 -28 27 -28 7 -45 -24 -20 -27 -57 -5 -57 9 0 18
-8 21 -17 29 -89 51 -103 162 -106 75 -2 77 -1 81 23 4 31 -15 156 -35 230
-17 59 -22 73 -49 135 -9 22 -20 67 -23 100 -6 70 -47 148 -79 153 -13 2 -29
-7 -42 -24 -21 -26 -23 -27 -74 -16 -28 6 -108 16 -177 22 -127 11 -181 22
-235 45 -47 20 -224 58 -241 51 -8 -3 -72 4 -142 15 -70 11 -158 25 -197 30
-38 6 -77 14 -85 18 -13 7 -15 91 -18 649 l-2 641 35 17 c26 12 49 15 85 10
29 -4 51 -2 55 4 3 5 16 10 29 10 12 0 41 9 64 20 22 11 48 20 57 20 48 0 342
-146 351 -174 4 -11 16 -32 26 -47 22 -29 29 -114 14 -161 -7 -25 -6 -28 15
-29 37 -1 108 -59 140 -114 84 -147 91 -187 40 -235 -50 -48 -41 -114 20 -154
21 -15 39 -32 39 -40 0 -7 11 -30 25 -50 14 -20 25 -50 25 -66 0 -17 5 -30 10
-30 6 0 24 -10 40 -22 46 -34 40 -62 -20 -96 -55 -30 -67 -50 -49 -83 10 -20
16 -21 86 -16 59 4 75 3 80 -9 3 -8 11 -14 19 -14 19 0 18 36 -1 44 -10 4 -15
20 -15 53 0 32 -8 62 -25 91 -13 23 -20 42 -14 42 15 0 10 19 -13 52 -17 22
-19 32 -10 35 17 6 15 30 -3 37 -9 3 -15 19 -15 41 0 20 -6 38 -13 41 -8 3
-12 21 -11 54 2 27 -2 52 -7 55 -5 4 -9 15 -9 25 0 10 -10 26 -22 34 -19 13
-21 23 -19 80 2 59 0 66 -26 90 -15 14 -22 26 -15 26 17 0 15 55 -2 69 -8 6
-17 35 -20 64 -4 30 -14 66 -21 81 -8 16 -15 45 -15 66 0 21 -6 43 -14 49 -14
12 -27 57 -28 98 0 13 -20 62 -44 110 -24 47 -44 96 -44 107 0 12 -9 38 -20
59 -11 20 -20 53 -20 72 0 20 -7 47 -16 60 -17 26 -34 83 -38 125 -2 30 -14
77 -26 105 -12 27 -21 83 -21 120 0 17 -9 39 -21 53 -21 21 -42 79 -55 147 -3
17 -11 37 -17 45 -7 8 -19 35 -26 60 -7 25 -20 52 -27 61 -7 8 -13 34 -13 56
0 23 -6 46 -14 52 -8 7 -19 31 -25 54 -19 77 -39 145 -50 166 -6 11 -11 33
-11 50 0 18 -7 34 -17 40 -12 6 -17 20 -15 41 1 17 -9 63 -24 103 -14 40 -29
86 -31 102 -3 17 -12 39 -19 50 -13 22 -27 94 -26 138 0 17 -5 27 -14 27 -8 0
-14 -6 -14 -12 0 -9 -4 -8 -10 2 -5 8 -10 29 -10 47 0 17 -4 34 -9 37 -5 4
-15 39 -21 79 -7 39 -16 77 -20 82 -4 6 -13 39 -19 75 -7 36 -22 83 -33 105
-11 22 -25 49 -30 59 -6 11 -10 38 -10 60 1 24 -6 48 -15 58 -9 10 -20 37 -26
60 -8 30 -11 471 -12 1418 l0 1375 25 6 c47 11 70 21 70 30 0 5 4 9 10 9 5 0
18 8 29 18 23 21 62 52 79 61 18 11 28 107 12 126 -17 21 -78 18 -115 -5 -66
-42 -106 -59 -111 -47 -2 7 -3 235 -2 507 l3 495 25 0 c20 0 26 -6 28 -27 3
-28 32 -41 32 -15 0 30 26 65 57 76 24 9 33 18 33 35 0 29 -15 41 -58 49 -18
4 -53 18 -77 33 l-45 26 0 1104 0 1104 35 0 c43 0 85 19 85 38 0 7 9 16 20 19
13 3 20 14 20 29 0 13 5 24 10 24 6 0 10 5 10 11 0 6 18 28 40 49 49 47 60 75
60 151 0 33 4 59 10 59 14 0 13 33 -2 48 -20 20 -48 14 -80 -18 -16 -16 -34
-30 -39 -30 -5 0 -11 -11 -15 -25 -3 -14 -12 -25 -20 -25 -8 0 -14 -8 -14 -18
0 -10 -9 -25 -20 -35 -12 -10 -20 -29 -20 -47 0 -22 -5 -30 -18 -30 -11 0 -24
-12 -30 -26 -22 -48 -32 -14 -32 110 0 109 2 126 20 149 30 39 60 108 60 143
0 17 3 34 7 37 3 4 1844 7 4089 7 l4083 0 41 -72z m10546 -22 c24 -52 63 -117
86 -145 24 -27 61 -71 83 -97 22 -26 68 -75 103 -109 l62 -62 -2 -574 c-3
-564 -3 -573 -23 -579 -57 -15 -99 -71 -126 -167 -7 -23 -24 -53 -38 -67 -24
-23 -38 -27 -134 -32 -70 -5 -107 -11 -107 -19 0 -21 -25 -65 -37 -65 -7 0
-13 -4 -13 -10 0 -5 -16 -10 -35 -10 -65 0 -96 -58 -60 -114 14 -20 14 -27 0
-60 -9 -22 -30 -45 -50 -58 -19 -11 -35 -24 -35 -29 0 -5 -19 -9 -43 -9 -23 0
-57 -4 -74 -9 -20 -6 -35 -6 -38 0 -4 5 -24 9 -46 9 -30 0 -39 4 -39 17 0 9
-12 30 -27 45 -30 31 -31 30 47 32 l35 1 2 60 c2 39 9 68 20 83 20 26 74 58
115 66 18 4 33 18 44 41 20 42 98 124 143 151 17 10 31 22 31 25 0 4 6 14 13
21 7 7 20 25 30 41 11 17 26 27 41 27 16 0 33 11 48 31 43 57 173 189 186 189
6 0 12 7 12 15 0 8 5 15 10 15 6 0 10 7 10 15 0 9 -9 15 -24 15 -17 0 -26 -7
-30 -26 l-7 -27 -22 20 c-12 12 -42 33 -66 48 -39 24 -49 26 -75 17 -17 -6
-64 -9 -105 -7 -59 4 -79 9 -97 26 -20 19 -27 20 -51 11 -15 -6 -49 -14 -75
-18 -42 -5 -48 -4 -63 20 -11 17 -29 27 -53 31 -21 3 -45 10 -54 16 -23 12
-58 12 -58 -1 0 -5 -9 -10 -20 -10 -11 0 -20 -4 -20 -9 0 -5 -9 -11 -19 -14
-13 -3 -31 7 -55 32 -41 42 -45 57 -16 66 11 3 20 12 20 19 0 7 12 26 26 41
18 19 24 35 20 50 -4 15 3 35 19 59 14 20 25 42 25 47 0 15 -30 79 -52 111
-19 27 -19 27 5 33 15 4 26 17 33 38 8 27 15 33 50 40 34 6 44 14 55 39 12 29
11 32 -11 47 -34 22 -60 49 -60 62 0 11 17 10 98 -7 21 -4 40 -1 55 8 12 8 48
17 79 21 33 3 83 18 120 36 34 17 73 31 85 31 12 0 24 4 27 9 3 4 19 11 35 14
19 4 34 16 43 33 13 28 87 89 121 100 25 9 22 63 -9 118 -21 38 -31 46 -54 46
-20 0 -31 -6 -35 -20 -10 -32 -51 -25 -104 20 -26 22 -57 40 -68 40 -28 0
-133 49 -139 65 -6 14 18 76 42 113 14 21 21 22 130 22 l115 0 45 -94z m-1136
-106 c22 -28 32 -51 32 -75 0 -39 10 -43 54 -21 15 8 31 13 36 10 13 -8 9 -37
-8 -59 -13 -17 -25 -20 -84 -17 -43 2 -70 -1 -70 -8 0 -5 -8 -10 -19 -10 -22
0 -87 26 -94 37 -3 5 8 27 24 51 16 23 29 51 29 61 0 23 37 71 55 71 7 0 28
-18 45 -40z m-5412 -255 c5 -39 19 -55 50 -55 14 0 39 -10 56 -23 17 -13 39
-26 49 -30 9 -4 22 -18 27 -32 6 -17 17 -25 33 -25 17 0 33 -14 60 -52 34 -49
35 -54 20 -70 -9 -10 -24 -18 -35 -18 -11 0 -18 -7 -18 -19 0 -11 -5 -23 -11
-27 -13 -8 -7 -93 10 -136 8 -21 17 -28 38 -28 17 -1 54 -20 96 -51 97 -72 91
-92 -28 -90 -67 1 -75 -1 -93 -24 -15 -19 -29 -25 -60 -25 -25 0 -49 -8 -65
-21 -15 -11 -53 -25 -85 -31 -51 -9 -62 -9 -85 7 -16 10 -31 33 -37 56 -13 47
-53 97 -82 101 -12 2 -29 16 -38 32 -8 16 -28 38 -42 49 -25 19 -32 19 -83 8
-30 -7 -68 -22 -83 -34 -39 -32 -61 -45 -112 -67 -25 -11 -53 -24 -62 -30 -9
-5 -51 -17 -93 -25 -82 -17 -105 -12 -105 26 0 25 54 73 105 94 205 84 321
181 388 325 29 60 82 141 100 148 4 2 7 10 7 17 0 16 52 55 73 55 8 0 20 7 27
16 8 9 25 14 44 12 26 -3 32 -8 34 -33z m5142 -105 l20 -20 -20 -38 c-12 -20
-32 -52 -45 -71 -25 -34 -31 -69 -27 -144 2 -32 -1 -40 -18 -44 -11 -3 -20 -9
-20 -14 0 -17 -56 20 -94 62 l-38 42 41 36 c22 20 41 41 41 47 0 20 51 116 75
140 29 29 58 31 85 4z m1738 -2416 l-3 -479 -26 3 c-45 4 -76 -14 -88 -51 -11
-33 -14 -35 -69 -39 -31 -3 -58 -1 -60 3 -2 5 -13 9 -24 9 -11 0 -38 10 -61
23 -29 16 -41 19 -44 10 -3 -7 -15 -13 -28 -13 -13 0 -25 -5 -27 -12 -4 -10
-14 -9 -47 2 -33 11 -52 11 -84 3 -25 -7 -49 -8 -64 -2 -23 8 -32 29 -13 29
21 0 9 29 -22 55 -29 25 -38 27 -90 22 -62 -5 -72 0 -100 59 -10 21 -12 38 -6
55 5 13 7 31 5 41 -3 9 0 19 7 21 8 3 6 19 -6 57 -16 50 -16 55 -1 82 11 18
33 33 64 43 49 17 89 54 89 83 0 27 20 42 56 42 17 0 37 6 43 14 7 8 32 23 56
35 24 11 55 32 71 46 15 14 33 25 40 25 7 0 33 20 57 45 25 25 55 45 66 45 12
0 21 5 21 10 0 6 7 10 15 10 8 0 30 14 48 30 28 24 44 30 81 30 53 0 56 9 31
80 -8 23 -12 46 -9 51 3 5 25 9 49 9 24 0 47 5 51 11 20 33 24 -47 22 -487z
m-1240 465 c20 -15 35 -19 59 -14 38 7 53 -13 53 -69 0 -26 -6 -40 -23 -51
-20 -13 -30 -13 -87 3 -53 14 -65 21 -70 42 -4 18 -14 26 -35 30 -40 7 -41 23
-5 54 38 31 73 33 108 5z m-8689 -1194 c32 -27 67 -62 77 -78 16 -23 57 -44
122 -63 21 -6 15 -97 -8 -122 -26 -28 -38 -22 -80 41 -19 28 -48 63 -63 76
-15 13 -34 36 -43 52 -8 16 -28 44 -44 62 -16 19 -34 46 -40 61 -15 40 8 32
79 -29z m9931 -242 c0 -106 -2 -119 -22 -140 -12 -13 -27 -23 -33 -23 -7 0
-24 -11 -39 -25 -23 -21 -30 -23 -52 -13 -19 9 -30 9 -45 0 -10 -7 -23 -12
-29 -12 -6 0 -19 -8 -30 -18 -75 -69 -230 -101 -230 -46 0 8 10 14 25 14 29 0
31 11 10 44 -14 21 -14 27 10 67 31 54 31 75 3 83 -21 5 -22 7 -6 22 9 9 34
18 56 19 22 2 51 10 63 18 13 8 57 20 96 27 57 10 76 18 88 37 9 12 23 23 33
23 9 1 33 9 52 20 19 11 38 19 43 20 4 0 7 -53 7 -117z m-500 -235 c11 -4 10
-7 -8 -17 -25 -13 -30 -49 -7 -57 25 -10 20 -82 -8 -108 -12 -12 -30 -20 -40
-18 -9 2 -26 -6 -39 -17 -24 -23 -34 -26 -43 -11 -3 6 -13 10 -22 10 -8 0 -26
9 -40 20 -18 14 -41 20 -74 20 -36 0 -49 4 -49 14 0 8 5 18 10 21 15 9 12 45
-4 45 -27 0 -27 19 -1 42 36 31 132 68 186 72 26 2 55 8 65 14 15 8 24 6 39
-7 11 -10 27 -21 35 -23z m498 -699 c3 -386 -2 -435 -35 -407 -11 8 -12 27 -7
77 6 62 4 67 -20 90 -25 23 -28 24 -82 12 -41 -10 -66 -23 -95 -51 -21 -21
-39 -45 -39 -54 0 -9 -4 -16 -10 -16 -5 0 -10 -6 -10 -14 0 -7 -7 -19 -15 -26
-8 -7 -15 -20 -15 -30 0 -24 -25 -33 -40 -14 -7 8 -25 14 -40 14 -25 0 -28 -4
-34 -49 -5 -40 -2 -56 15 -85 27 -47 18 -58 -31 -39 -27 11 -42 24 -46 40 -7
26 -10 27 -69 12 -43 -11 -43 -11 -79 29 -40 44 -78 98 -88 124 -6 14 0 17 35
20 35 2 43 7 45 26 2 12 8 22 13 22 5 0 9 13 9 29 0 22 6 30 24 35 17 4 36 26
60 70 36 64 106 126 142 126 30 0 82 29 89 50 4 12 -1 39 -12 65 -17 42 -20
44 -58 43 -23 0 -60 3 -83 7 -38 6 -43 4 -73 -28 -20 -22 -38 -33 -49 -30 -16
4 -17 7 -2 36 9 18 37 53 62 79 37 37 54 47 92 53 39 6 53 3 81 -14 52 -32 70
-27 123 34 27 30 53 55 58 55 5 0 20 10 33 22 26 24 122 69 138 64 6 -2 11
-138 13 -377z m-1244 -295 c26 -5 40 -13 43 -25 4 -16 12 -18 42 -13 26 4 41
2 49 -9 19 -22 3 -28 -97 -37 -71 -6 -90 -4 -111 9 -14 9 -36 18 -49 21 -26 5
-50 34 -38 46 10 11 79 23 102 18 11 -2 37 -7 59 -10z m-799 -483 c33 -11 67
-21 75 -21 26 0 219 -120 236 -146 15 -22 15 -27 0 -59 -20 -42 -42 -45 -111
-15 -26 11 -69 20 -96 20 -82 0 -139 20 -202 72 -32 26 -66 48 -75 48 -9 0
-31 10 -49 23 -41 27 -43 58 -5 87 24 20 35 22 97 16 39 -3 97 -14 130 -25z
m-1298 -1493 c104 -17 214 -98 199 -145 -8 -24 -126 -48 -237 -48 -79 1 -122
16 -299 103 -90 45 -70 75 65 101 48 10 186 4 272 -11z m1151 -668 c24 -22 48
-40 55 -40 7 0 21 -6 32 -14 11 -8 56 -17 100 -21 49 -5 87 -13 98 -23 13 -11
43 -16 115 -17 126 -3 157 -15 182 -71 11 -23 20 -52 20 -63 0 -18 -56 -71
-75 -71 -5 0 -16 -7 -26 -16 -16 -14 -27 -15 -84 -5 -52 9 -74 9 -103 -1 -20
-7 -39 -16 -42 -19 -10 -13 -83 -39 -110 -39 -31 0 -82 35 -161 111 -54 52
-57 57 -61 113 -4 52 -9 63 -38 87 -22 19 -35 40 -40 68 -9 49 1 61 55 61 33
0 48 -7 83 -40z m-16887 -53 c15 -14 28 -38 32 -60 5 -32 2 -41 -24 -67 -17
-16 -41 -30 -54 -30 -12 0 -26 -7 -29 -16 -15 -38 -26 4 -26 97 l0 99 38 0
c24 -1 46 -9 63 -23z m16334 -275 c42 -23 124 -47 215 -64 54 -10 68 -20 107
-76 13 -18 13 -25 2 -38 -7 -9 -18 -26 -24 -38 -11 -23 -32 -26 -155 -28 -85
0 -173 15 -290 51 -19 6 -54 11 -77 11 -23 0 -44 4 -47 9 -3 4 -25 8 -48 8
-37 0 -47 5 -75 38 -30 35 -36 63 -17 84 9 10 114 20 152 15 41 -6 46 -4 72
28 27 33 29 34 87 28 32 -3 76 -16 98 -28z m-16242 1 c44 -19 58 -54 33 -82
-9 -10 -16 -23 -16 -29 0 -6 -12 -12 -27 -14 -38 -4 -43 -35 -8 -48 15 -6 32
-24 41 -45 8 -20 22 -39 32 -42 30 -11 43 -25 33 -37 -4 -6 -11 -27 -15 -47
-5 -30 -2 -39 21 -60 16 -14 40 -33 56 -42 34 -22 34 -28 0 -67 -16 -19 -29
-51 -34 -80 -7 -46 -6 -50 29 -91 20 -24 54 -60 75 -81 20 -21 37 -46 37 -56
1 -9 5 -48 10 -87 5 -43 5 -89 -1 -123 -6 -30 -8 -57 -5 -60 4 -3 28 0 55 7
42 11 54 10 80 -4 28 -14 31 -20 31 -60 0 -24 5 -47 10 -50 17 -11 11 -39 -14
-66 -24 -25 -28 -26 -123 -24 -169 4 -456 38 -480 58 -10 7 -13 145 -13 627 0
339 3 619 6 623 11 11 148 -4 187 -20z m16607 -3790 c36 -18 75 -41 87 -51
l23 -17 -24 -30 c-18 -23 -27 -27 -37 -18 -9 7 -46 10 -104 7 -99 -5 -251 22
-312 55 -22 11 -22 41 0 41 6 0 18 6 26 14 9 8 56 19 106 26 49 6 92 13 94 16
10 10 79 -11 141 -43z m-153 -255 c27 -26 33 -27 133 -28 184 -1 229 -5 241
-17 7 -7 19 -13 26 -13 7 0 23 -11 35 -25 12 -14 32 -25 44 -25 13 0 26 -4 29
-10 3 -5 19 -10 34 -10 15 0 34 -6 42 -12 23 -19 49 -65 49 -86 0 -37 24 -72
50 -72 36 0 73 -28 65 -49 -4 -9 -10 -52 -15 -95 -6 -47 -16 -86 -25 -95 -13
-14 -15 -13 -15 7 0 15 -6 22 -20 22 -13 0 -20 -7 -20 -20 0 -11 5 -20 11 -20
8 0 7 -5 -1 -15 -9 -11 -16 -13 -24 -5 -14 14 -66 13 -66 -1 0 -8 -13 -9 -40
-5 -26 4 -40 2 -40 -5 0 -14 -389 -10 -408 5 -9 7 -19 6 -32 -1 -27 -18 -60
-5 -60 23 0 17 -8 28 -26 34 -14 6 -28 19 -31 30 -3 10 -16 26 -30 35 -21 14
-24 22 -18 51 5 29 3 34 -14 34 -11 0 -22 -4 -25 -9 -3 -4 -28 -6 -55 -3 -43
4 -51 2 -60 -17 -11 -20 -14 -20 -34 -6 -12 8 -38 15 -59 15 -21 0 -38 5 -38
11 0 5 -8 9 -17 7 -20 -3 -83 21 -83 31 0 3 10 11 23 16 17 8 22 18 21 48 -1
26 3 37 13 37 8 0 20 13 25 28 15 39 66 72 111 72 23 0 37 5 38 13 2 33 57
101 104 126 66 37 123 37 162 -1z m-615 -95 c10 -9 18 -21 18 -27 -1 -15 -47
-66 -60 -66 -5 0 -10 -7 -10 -15 0 -21 -16 -19 -56 6 -37 23 -42 39 -19 63 8
8 15 19 15 25 0 6 10 19 21 30 17 16 26 18 48 10 14 -6 34 -18 43 -26z m-325
-104 c27 -6 56 -16 66 -21 10 -5 27 -6 37 -3 27 9 34 -12 20 -56 -14 -41 -16
-42 -116 -54 -43 -5 -58 -2 -97 19 -25 14 -54 26 -65 26 -23 0 -69 58 -50 64
37 12 59 13 64 5 8 -14 34 -10 34 5 0 27 36 32 107 15z m2315 -145 c14 -9 9
-22 -21 -56 -15 -18 -31 -50 -35 -71 -6 -34 -9 -37 -41 -37 -32 0 -35 -3 -35
-30 0 -41 -26 -52 -113 -46 -67 4 -72 6 -69 27 4 33 31 49 60 36 29 -13 43 4
40 48 -2 23 2 32 19 40 15 6 24 22 28 47 6 31 12 39 33 44 15 3 32 7 37 10 12
4 85 -5 97 -12z m-17560 -99 c52 -28 98 -33 98 -11 0 17 22 26 65 26 37 0 69
-25 61 -47 -3 -8 -6 -30 -6 -49 0 -30 -4 -35 -30 -40 -16 -4 -30 -10 -30 -15
0 -16 -87 -10 -100 6 -15 18 -46 20 -53 2 -7 -17 -432 -24 -453 -6 -23 19 -16
38 20 53 24 10 35 22 39 44 7 36 27 42 97 31 49 -8 82 -4 175 21 50 13 68 11
117 -15z"/>
<path d="M835 6266 c-21 -11 -45 -26 -52 -33 -7 -6 -26 -17 -43 -25 -16 -7
-30 -16 -30 -20 0 -4 -17 -15 -37 -25 -21 -9 -53 -31 -71 -47 -29 -27 -33 -35
-30 -76 l3 -45 58 0 c54 1 60 3 96 40 56 60 80 77 151 112 76 38 98 70 78 115
-11 23 -19 28 -48 27 -19 -1 -53 -11 -75 -23z"/>
<path d="M848 5430 c-21 -11 -28 -23 -28 -46 0 -26 6 -34 31 -44 22 -10 33
-10 38 -2 9 14 56 32 86 32 24 0 65 41 65 66 0 20 -156 15 -192 -6z"/>
<path d="M1226 4123 c-11 -37 -3 -87 17 -103 11 -9 25 -32 31 -51 9 -28 16
-35 44 -37 17 -2 32 1 32 7 0 6 8 18 18 28 10 10 25 38 32 62 14 42 13 44 -10
63 -14 11 -34 18 -47 15 -12 -2 -35 4 -50 14 -35 24 -60 24 -67 2z"/>
<path d="M1950 3920 c0 -6 -8 -13 -17 -17 -32 -11 -83 -54 -83 -69 0 -8 -10
-14 -22 -14 -13 0 -34 -12 -47 -25 -13 -14 -27 -25 -32 -25 -5 0 -9 -9 -9 -20
0 -27 29 -38 45 -17 7 10 22 17 34 17 17 0 21 6 21 30 0 29 2 30 45 30 29 0
45 4 45 13 0 6 14 20 30 29 23 13 30 24 30 48 0 23 -4 30 -20 30 -11 0 -20 -5
-20 -10z"/>
<path d="M1648 3687 c-12 -13 -40 -34 -60 -46 -39 -24 -50 -55 -26 -79 18 -18
45 -15 81 11 63 44 69 53 65 93 -4 47 -26 55 -60 21z"/>
<path d="M382 1364 c-6 -16 -14 -43 -17 -60 -5 -28 -2 -34 30 -54 30 -19 44
-21 93 -15 53 6 59 4 81 -19 28 -30 56 -33 105 -9 34 16 37 16 56 -2 16 -15
32 -17 94 -13 50 3 81 1 97 -8 25 -14 86 -18 113 -8 39 15 1 74 -48 74 -37 0
-124 52 -146 87 -16 28 -23 30 -74 30 -31 0 -56 -3 -56 -7 0 -4 -30 -10 -67
-14 -60 -6 -70 -5 -97 16 -22 16 -49 23 -92 26 -59 4 -61 3 -72 -24z"/>
<path d="M3870 1231 c-36 -10 -103 -34 -150 -55 -46 -21 -107 -40 -135 -43
-27 -2 -71 -11 -97 -20 -39 -12 -48 -19 -48 -38 0 -22 3 -22 83 -22 45 0 96
-3 113 -7 26 -7 36 -3 59 18 22 20 38 26 74 26 25 0 64 9 86 18 22 10 61 24
87 31 60 17 90 45 86 79 -3 24 -7 27 -48 29 -25 1 -74 -6 -110 -16z"/>
<path d="M1030 1036 c0 -7 -7 -19 -15 -26 -18 -15 -20 -54 -2 -67 6 -6 36 -13
65 -16 57 -7 102 7 102 30 0 25 -20 53 -38 53 -10 0 -35 9 -57 20 -46 24 -55
25 -55 6z"/>
</g>
</svg>
